<svg width="1735" height="1060" viewBox="0 0 1735 1060" fill="none" xmlns="http://www.w3.org/2000/svg">
<path d="M932.002 379.368C931.938 380.517 931.899 381.118 931.899 381.118C931.899 381.118 931.714 380.537 931.355 379.414C928.411 370.157 914.037 324.48 900.949 273.614C882.85 203.242 867.234 122.96 887.784 115.538C926.722 101.47 933.903 213.909 934.011 296.873C934.075 337.745 932.418 371.456 932.002 379.368Z" fill="#A8D29F"/>
<path d="M970.101 287.995C956.034 319.833 943.823 346.617 936.815 362.656C933.768 369.654 931.707 374.596 930.907 377.038C931.592 373.075 933.429 362.441 936.047 347.309C936.047 347.302 936.047 347.302 936.047 347.289C939.983 324.618 945.698 291.866 951.963 256.308C967.176 169.871 985.691 66.8846 990.011 52.1639C997.64 26.1888 1032.79 -29.097 1056.44 19.008C1071.81 50.2707 1012.5 192.04 970.101 287.995Z" fill="#A8D29F"/>
<path d="M972.936 333.418C958.395 349.072 946.171 361.769 939.343 368.78C935.611 372.625 933.493 374.766 933.493 374.766C933.493 374.766 937.218 366.671 943.56 353.739C949.551 341.525 957.877 324.996 967.611 306.914C999.502 247.639 1046.45 171.666 1075.57 176.053C1108.8 181.06 1025.65 276.669 972.936 333.418Z" fill="#A8D29F"/>
<path d="M932.002 379.368C931.797 379.375 931.579 379.394 931.355 379.414C928.411 370.157 914.037 324.481 900.949 273.614C907.055 282.943 918.088 295.444 934.011 296.874C934.075 337.746 932.418 371.456 932.002 379.368Z" fill="#82B378"/>
<path d="M970.101 287.995C956.034 319.833 943.823 346.617 936.815 362.656C936.283 358.178 936.047 352.988 936.047 347.309C936.047 347.303 936.047 347.303 936.047 347.289C939.983 324.618 945.698 291.867 951.963 256.308C954.408 268.725 959.509 282.473 970.101 287.995Z" fill="#82B378"/>
<path d="M972.936 333.417C958.395 349.072 946.171 361.769 939.343 368.78C940.002 364.752 941.538 359.516 943.56 353.739C949.55 341.525 957.877 324.996 967.611 306.914C967.835 314.493 968.891 325.786 972.936 333.417Z" fill="#82B378"/>
<path d="M930.901 377.057C930.709 378.167 930.607 378.748 930.607 378.748C930.466 378.67 930.562 378.095 930.901 377.057Z" fill="#A8D29F"/>
<path d="M950.427 491.343C926.031 561.84 895.656 638.701 895.656 638.701L827.035 617.726C827.035 617.726 835.067 565.515 846.863 507.415C860.616 439.681 868.469 371.332 896.687 353.55C904.45 348.66 912.84 346.389 921.039 345.775C925.179 345.455 929.301 345.592 933.32 346.14C934.28 346.271 935.221 346.415 936.175 346.584C938.555 347.022 940.898 347.59 943.183 348.282C944.072 348.536 944.955 348.823 945.832 349.143C948.872 350.194 951.81 351.461 954.607 352.91C966.485 359.072 976.053 368.342 979.803 378.363C991.074 408.49 968.866 438.088 950.427 491.343Z" fill="#ED7D2B"/>
<path d="M916.898 577.703C898.869 633.485 893.512 694.698 900.917 760.011C902.152 770.9 908.104 780.365 916.693 786.162C920.546 788.76 924.923 790.627 929.647 791.568C940.239 791.509 961.135 771.872 973.083 746.811C976.367 739.918 978.984 732.619 980.514 725.197C992.495 667.228 1014.68 597.424 1042.2 561.748C1070.34 525.263 1108.25 481.656 1160.37 451.66C1160.37 451.66 1160.37 451.653 1160.39 451.653C1165.42 448.716 1283.68 360.874 1283.68 360.874C1295.45 348.184 1281.51 333.966 1281.51 333.966C1281.51 333.966 1270.27 344.013 1236.01 364.138C1201.75 384.258 1141.58 360.679 1141.56 360.672C1124.7 352.897 1104.69 353.694 1088.13 363.949C1062.57 379.773 1028.53 404.73 996.251 440.666C959.931 481.095 933.231 527.202 916.898 577.703Z" fill="#FFB93E"/>
<path d="M980.514 725.197C992.495 667.228 1014.68 597.424 1042.2 561.748C1070.34 525.263 1108.25 481.656 1160.37 451.66C1160.37 451.66 1160.37 451.653 1160.39 451.653C1161.29 450.981 1196.55 424.457 1157.47 400.441C1119.23 376.94 963.112 552.028 973.083 746.811C976.367 739.918 978.984 732.619 980.514 725.197Z" fill="#FFA412"/>
<path d="M837.371 498.479C832.431 506.397 826.37 514.061 819.215 521.242C792.111 548.477 749.563 568.674 694.792 568.152C694.792 568.152 671.797 545.794 660.648 517.345L660.661 517.332C652.93 497.597 647.285 468.541 660.648 446.972C669.263 433.074 680.341 426.501 691.573 423.034C710.651 417.113 730.159 420.168 738.683 411.499C747.087 402.954 759.048 395.577 772.187 391.328C774.331 390.629 776.507 390.015 778.715 389.506H778.722C779.637 389.284 780.546 389.082 781.467 388.899C781.487 388.886 781.506 388.886 781.525 388.886C801.775 384.852 823.407 388.808 838.453 407.223C841.941 411.493 845.109 416.65 847.803 422.851C857.442 444.949 853.301 472.967 837.371 498.479Z" fill="#A8D29F"/>
<path d="M678.069 443.774C678.069 443.774 659.995 458.246 665.531 474.26C671.074 490.273 685.359 482.877 689.826 471.786C694.293 460.694 689.954 438.395 678.069 443.774Z" fill="#D1F2C9"/>
<path d="M838.453 407.217C841.941 411.486 845.109 416.65 847.803 422.851C857.442 444.949 870.671 503.551 854.747 529.069L833.384 548.999C806.28 576.234 749.563 568.674 694.792 568.146C694.792 568.146 671.803 545.787 660.648 517.338L660.661 517.332C660.661 517.332 728.411 544.671 792.219 487.596C821.205 461.661 833.576 431.945 838.453 407.217Z" fill="#95C38B"/>
<path d="M735.119 378.076C723.932 371.28 712.616 380.824 699.483 386.059C686.338 391.308 661.058 391.204 661.058 391.204C661.058 391.204 671.458 375.934 688.501 360.763C705.544 345.599 735.119 378.076 735.119 378.076Z" fill="#A8D29F"/>
<path d="M735.119 378.076C724.61 369.269 705.167 364.223 695.682 368.186C686.197 372.142 661.058 391.204 661.058 391.204C661.058 391.204 671.458 375.934 688.501 360.763C705.544 345.599 735.119 378.076 735.119 378.076Z" fill="#82B378"/>
<path d="M738.683 411.499C747.087 402.954 759.048 395.577 772.187 391.328C749.851 399.873 737.531 428.753 729.051 425.404C719.963 421.807 692.616 422.982 691.573 423.034C710.651 417.113 730.159 420.169 738.683 411.499Z" fill="#95C38B"/>
<path d="M781.467 388.9C780.763 389.102 779.855 389.304 778.722 389.506C779.637 389.285 780.546 389.082 781.467 388.9Z" fill="#95C38B"/>
<path d="M730.632 424.823C723.464 408.679 727.343 388.651 731.848 374.701C735.439 363.59 742.325 348.595 745.704 341.466C746.415 339.959 748.559 340.115 749.077 341.701L750.44 345.912C751.803 350.123 751.304 354.738 749.051 358.531C742.127 370.209 728.219 397.497 734.485 419.959C735.189 422.492 731.899 427.715 730.632 424.823Z" fill="#82B378"/>
<path d="M878.082 497.597L875.855 496.683C885.717 481.708 901.026 471.439 913.077 466.694C923.631 462.535 932.079 461.164 935.093 460.766C935.829 460.668 936.559 460.955 937.039 461.53L938.907 463.749C939.835 464.853 939.195 466.609 937.787 466.811C927.003 468.384 892.987 474.978 878.082 497.597Z" fill="#2B478B"/>
<path d="M836.117 501.873C847.426 473.045 863.349 479.547 882.997 487.57C902.639 495.587 918.562 502.089 907.247 530.916C899.138 551.578 876.642 561.827 857 553.804C837.359 545.787 828.008 522.534 836.117 501.873Z" fill="#699DEE"/>
<path d="M848.027 495.913C848.738 490.749 856.891 485.311 861.96 486.029C867.023 486.754 869.378 492.525 868.674 497.695C867.963 502.859 860.987 507.304 855.919 506.58C850.856 505.855 847.323 501.083 848.027 495.913Z" fill="#92BEFF"/>
<path d="M1108.81 509.132L1169.47 949.937C1177 1004.61 1135.38 1053.44 1081.26 1053.44H989.851C943.695 1053.44 907.765 1012.55 912.783 965.755L964.123 555.71L1108.81 509.132Z" fill="#FCECDB"/>
<path d="M790.203 509.132C790.203 509.132 937.25 560.273 1108.81 509.132L1058.26 1054.83H738.12L790.203 509.132Z" fill="#FCECDB"/>
<path d="M790.204 509.132L850.869 951.067C858.396 1005.88 816.776 1054.83 762.652 1054.83H671.247C625.09 1054.83 589.16 1013.85 594.178 966.923L637.634 509.132C637.634 509.132 659.042 513.395 711.125 513.395C762.703 513.395 790.204 509.132 790.204 509.132Z" fill="#EFCBAB"/>
<path d="M1062.29 558.275C1062.29 551.858 1057.19 546.655 1050.9 546.655C1044.62 546.655 1039.52 551.858 1039.52 558.275C1039.52 562.564 1041.8 566.305 1045.19 568.315C1050.02 607.425 1042.4 639.386 1023.39 658.97C1006.11 676.766 979.893 683.365 947.586 678.045C919.176 673.371 900.482 641.305 889.8 615.232C882.114 596.477 877.371 578.01 874.933 567.042C877.339 564.914 878.863 561.781 878.863 558.275C878.863 551.858 873.768 546.655 867.477 546.655C861.186 546.655 856.085 551.858 856.085 558.275C856.085 562.603 858.408 566.37 861.845 568.368C867.97 597.032 890.645 682.125 945.512 691.16C953.499 692.472 961.167 693.125 968.501 693.125C994.811 693.125 1016.72 684.717 1032.64 668.312C1054.44 645.862 1063.36 610.225 1058.18 567.219C1060.69 565.084 1062.29 561.872 1062.29 558.275Z" fill="#ED7D2B"/>
<path d="M1255.89 675.499C1263.59 678.104 1271.93 679.899 1280.74 680.748C1314.17 683.972 1354.33 673.599 1391.5 642.095C1391.5 642.095 1395.02 613.731 1387.1 587.926H1387.09C1381.59 570.026 1369.58 546.943 1348.64 539.781C1335.16 535.173 1323.98 536.974 1314.41 540.983C1298.12 547.785 1286.44 560.958 1275.87 559.875C1265.45 558.811 1253.24 560.567 1241.93 565.13C1240.08 565.867 1238.25 566.683 1236.46 567.591L1236.46 567.597C1235.71 567.963 1234.98 568.342 1234.25 568.74C1234.23 568.746 1234.22 568.759 1234.2 568.766C1218.15 577.52 1205.51 592.528 1205.28 613.679C1205.22 618.581 1205.87 623.915 1207.42 629.685C1212.9 650.281 1231.05 667.097 1255.89 675.499Z" fill="#ED7D2B"/>
<path d="M1334.98 547.498C1334.98 547.498 1355.25 547.126 1360.21 561.226C1365.17 575.333 1351.36 578.395 1342.24 573.349C1333.12 568.296 1323.91 550.572 1334.98 547.498Z" fill="#FFB583"/>
<path d="M1205.28 613.672C1205.22 618.575 1205.88 623.915 1207.42 629.692C1212.9 650.288 1235.87 697.903 1260.71 706.305C1260.71 706.305 1309.98 729.388 1338.15 718.649C1369.6 706.657 1388.96 681.309 1391.5 642.095C1391.5 642.095 1395.02 613.731 1387.1 587.926H1387.09C1387.09 587.926 1355.68 645.15 1280.83 642.382C1246.82 641.116 1222.12 627.818 1205.28 613.672Z" fill="#EA6C2D"/>
<path d="M1260.05 534.983C1263.98 523.977 1276.94 524.069 1288.79 520.184C1300.65 516.307 1317.88 501.86 1317.88 501.86C1317.88 501.86 1302.43 497.323 1282.48 496.638C1262.53 495.952 1260.05 534.983 1260.05 534.983Z" fill="#A8D29F"/>
<path d="M1260.05 534.983C1262.43 522.985 1272.97 508.48 1281.62 505.797C1290.27 503.114 1317.88 501.86 1317.88 501.86C1317.88 501.86 1302.43 497.323 1282.48 496.638C1262.53 495.952 1260.05 534.983 1260.05 534.983Z" fill="#82B378"/>
<path d="M1275.87 559.875C1265.45 558.811 1253.24 560.567 1241.93 565.13C1261.88 558.275 1286.09 571.025 1290.06 563.916C1294.31 556.284 1313.67 541.544 1314.41 540.983C1298.12 547.785 1286.44 560.958 1275.87 559.875Z" fill="#EA6C2D"/>
<path d="M1234.25 568.74C1234.84 568.479 1235.57 568.1 1236.46 567.597C1235.71 567.963 1234.98 568.342 1234.25 568.74Z" fill="#95C38B"/>
<path d="M1288.66 564.418C1284.74 549.299 1271.14 537.797 1260.44 530.818C1251.91 525.257 1239 518.911 1232.8 515.954C1231.48 515.334 1230.1 516.653 1230.62 518.037L1231.98 521.686C1233.35 525.348 1236.21 528.22 1239.84 529.539C1250.95 533.586 1275.37 544.351 1283.37 563.282C1284.26 565.41 1289.37 567.121 1288.66 564.418Z" fill="#82B378"/>
<path d="M1203.85 1015.21C1203.85 1015.21 1188.95 1026.6 1166.11 1020.58C1166.11 1020.58 1147.7 1016.3 1143.66 1025.67C1143.66 1025.67 1171.9 1040.3 1179.05 1044.3C1184.43 1047.32 1190.05 1052.08 1194.02 1055.76C1197.17 1058.67 1202.06 1058.28 1204.74 1054.91C1205.99 1053.35 1207.41 1051.5 1208.97 1049.35C1213.32 1043.33 1223.46 1023.89 1223.46 1023.89L1203.85 1015.21Z" fill="#233862"/>
<path d="M1195.1 1009.43C1195.1 1009.43 1204.17 1030.77 1225.12 1026.84C1225.12 1026.84 1267.86 990.842 1297.18 953.443C1306.7 941.294 1314.81 928.995 1319.57 917.748C1339.02 871.836 1391.49 803.357 1424.85 768.647L1341.38 737.848C1341.38 737.848 1314.65 792.703 1279.07 860.092C1253.44 908.641 1223.21 963.698 1195.1 1009.43Z" fill="#2B478B"/>
<path d="M1279.07 860.092L1297.18 953.443C1306.7 941.294 1314.81 928.996 1319.57 917.748C1339.02 871.836 1391.49 803.357 1424.85 768.648L1341.38 737.848C1341.38 737.848 1314.65 792.703 1279.07 860.092Z" fill="#233862"/>
<path d="M1347.3 1027.59C1347.3 1027.59 1348.21 1044.63 1327.97 1046.9C1327.97 1046.9 1316.41 1046.96 1316.37 1057.8L1375.2 1057.99C1375.2 1057.99 1376.9 1053.62 1377.32 1044.25C1377.64 1037.06 1370.49 1018.27 1370.49 1018.27L1347.3 1027.59Z" fill="#233862"/>
<path d="M1368.76 737.848C1368.76 737.848 1331.57 779.523 1307.97 854.609C1295.13 895.467 1331.51 998.179 1338.6 1033.87C1338.6 1033.87 1363.01 1035.98 1379.69 1029.4C1379.69 1029.4 1380.97 955.689 1371.2 898.875C1365.74 867.084 1420.17 830.879 1443.94 773.426C1460.12 734.343 1440.44 735.009 1416.26 734.069L1368.76 737.848Z" fill="#2B478B"/>
<path d="M1411.69 551.904C1432.37 563.818 1474.73 552.831 1474.73 552.831C1474.73 552.831 1457.53 532.77 1465.35 500.47L1449.1 508.884L1431.66 517.919C1431.66 517.919 1430.52 523.625 1429.74 533.874C1429.54 536.511 1429.37 539.462 1429.24 542.68C1418.61 545.963 1411.69 551.904 1411.69 551.904Z" fill="#FFB07B"/>
<path d="M1335.82 735.694C1335.82 739.402 1340.01 741.178 1340.9 741.36C1349.24 742.914 1372.55 752.158 1393.54 754.279C1411.21 756.166 1427.62 754.377 1445.65 750.682C1448.03 750.193 1453.63 748.652 1454.03 746.322C1454.53 743.769 1523.57 602.764 1469.9 542.197C1468.64 540.774 1458.04 543.333 1448.36 545.683C1439.41 547.844 1431.2 546.636 1423.87 543.64L1414.79 548.516C1403.63 554.855 1382.52 577.389 1380.05 595.067C1378.8 604.056 1373.76 610.715 1372.3 618.62C1371.76 621.552 1371.2 624.404 1370.64 627.192C1369.54 632.656 1368.41 637.852 1367.24 642.794C1364.09 656.163 1360.75 667.679 1357.48 677.621C1354 688.177 1350.58 696.963 1347.53 704.307C1343.57 713.832 1340.23 720.954 1338.15 726.405C1336.67 730.243 1335.82 733.253 1335.82 735.694Z" fill="#2A4E96"/>
<path d="M1338.15 726.405C1435.6 679.573 1469.35 589.643 1469.35 589.643C1469.35 589.643 1390.17 619.437 1370.64 627.192C1369.54 632.656 1368.41 637.852 1367.24 642.794C1364.09 656.163 1360.75 667.679 1357.48 677.621C1354 688.177 1350.58 696.963 1347.53 704.307C1343.57 713.832 1340.23 720.954 1338.15 726.405Z" fill="#1E3D70"/>
<path d="M1272.05 701.657C1272.05 701.657 1258.5 695.991 1255.39 696.441C1252.28 696.898 1243.67 694.698 1244.16 697.577C1244.49 699.561 1255.61 701.657 1255.61 701.657C1255.61 701.657 1243.2 698.804 1244.16 701.768C1244.81 703.805 1247.45 711.919 1251.56 714.569C1256.48 717.742 1265.37 716.208 1275.79 714.674C1294.93 711.847 1272.05 701.657 1272.05 701.657Z" fill="#FFB07B"/>
<path d="M1274.2 711.41C1271.08 703.126 1269.66 699.372 1269.66 699.372C1269.66 699.372 1333.29 646.469 1339.78 641.932C1344.19 638.838 1388.18 605.303 1409.63 579.165C1420.26 566.2 1437.03 560.273 1453.26 563.746L1466.61 566.599C1482.75 570.052 1487.98 590.876 1475.47 601.817C1440.23 632.63 1380.8 668.371 1369.72 675.806C1342.21 694.261 1281.36 720.118 1281.36 720.118C1281.36 720.118 1276.64 717.918 1274.2 711.41Z" fill="#2A4E96"/>
<path d="M1429.74 533.874C1450.09 535.036 1463.32 517.906 1463.32 517.906C1463.32 517.906 1454.12 512.703 1449.1 508.884L1431.66 517.919C1431.66 517.919 1430.52 523.625 1429.74 533.874Z" fill="#EA8E50"/>
<path d="M1421.07 512.566C1421.07 512.566 1451.9 535.134 1465.38 515.334C1478.86 495.535 1491.92 485.116 1472.81 469.873C1453.7 454.63 1444.69 459.441 1438.61 464.938C1432.53 470.428 1413.4 506.188 1421.07 512.566Z" fill="#FFB07B"/>
<path d="M1435.36 447.057C1436.46 439.446 1438.95 434.093 1438.95 434.093C1438.95 434.093 1440.88 442.266 1455.53 441.136C1470.17 440.007 1493.38 442.605 1501.12 459.63C1501.61 460.707 1502.05 461.824 1502.44 462.966C1503.84 459.193 1504.18 453.54 1504.18 453.54C1506.96 460.864 1504.18 470.029 1504.18 470.029H1504.17C1504.22 470.297 1504.25 470.565 1504.29 470.832C1507.52 473.62 1510.24 482.289 1510.24 482.289C1509.26 479.874 1506.88 478.294 1504.76 477.321C1504.83 490.567 1499.56 503.518 1490.32 507.37C1476.8 513.01 1476.91 508.708 1463.32 517.906C1463.32 517.906 1459.67 513.291 1462.16 510.19C1464.64 507.089 1474.04 502.578 1468.79 498.067C1463.54 493.563 1461.6 498.635 1459.67 495.534C1457.74 492.434 1467.41 483.412 1454.97 474.958C1442.54 466.504 1434.25 454.662 1435.36 447.057Z" fill="#233862"/>
<path d="M526.001 74.6334C525.948 73.145 524.815 57.0664 500.808 56.2243C500.808 56.2243 512.613 57.6605 514.653 62.9547C514.653 62.9547 506.614 56.4136 500.068 58.5156C493.522 60.6242 489.677 72.3224 489.638 76.1675C489.6 80.019 493.237 92.4222 497.391 93.4732C498.965 93.8714 500.778 93.767 502.424 93.4797C501.318 95.2423 500.235 97.1811 499.199 99.355C489.619 119.409 499.499 139.013 507.609 136.852C512.81 135.462 514.282 144.509 514.282 144.509L564.815 102.782C564.815 102.782 546.254 63.6075 526.001 74.6334Z" fill="#2C3A64"/>
<path d="M543.596 665.564L532.862 669.644C532.862 669.644 486.24 603.684 480.5 545.657C479.475 535.297 479.816 525.257 482.034 515.993C482.034 515.993 481.578 513.336 480.781 508.643C480.413 506.456 479.957 503.819 479.44 500.796C477.924 491.938 475.838 479.815 473.454 466.015C467.969 434.256 460.861 393.658 455.341 363.812L458.232 362.865L489.526 352.564L495.994 331.616L519.295 325.355C519.295 325.355 524.501 335.741 529.154 384.806C530.013 391.243 530.792 398.339 531.38 406.035C533.194 429.53 533.325 458.664 529.162 491.983C528.093 500.509 526.744 509.315 525.07 518.357C523.843 524.989 523.659 534.03 524.176 544.403C526.525 591.843 543.596 665.564 543.596 665.564Z" fill="#2B478B"/>
<path d="M531.38 406.035L480.781 508.643C480.413 506.456 479.957 503.819 479.44 500.796C477.924 491.938 475.838 479.815 473.454 466.015C467.969 434.256 460.861 393.658 455.341 363.812L458.232 362.865L489.526 352.564L495.994 331.616L519.295 325.355C519.295 325.355 524.501 335.741 529.154 384.806C530.013 391.243 530.792 398.339 531.38 406.035Z" fill="#233862"/>
<path d="M509.12 338.522L507.948 328.28C488.324 333.594 435.891 313.422 435.891 313.422C435.891 313.422 416.88 330.467 419.376 371.326C420.595 391.269 422.82 476.016 425.144 501.09C425.984 510.183 426.72 516.653 427.021 519.231C427.027 519.244 427.027 519.251 427.027 519.257C427.119 520.047 426.849 520.791 426.456 521.477C423.034 527.404 420.201 533.567 417.877 539.879C395.064 601.889 421.391 678.254 421.391 678.254L428.223 675.447C428.223 675.447 443.204 590.459 455.377 552.916C457.444 546.551 459.425 541.544 461.24 538.554C466.532 529.839 471.444 515.608 475.903 498.675C484.329 466.655 491.112 425.012 495.626 392.868C496.248 392.894 509.12 338.522 509.12 338.522Z" fill="#2B478B"/>
<path d="M663.727 325.434C659.503 329.246 648.29 316.157 646.747 314.414C646.664 314.251 646.587 314.166 646.587 314.166L649.999 304.472C649.999 304.472 664.7 303.891 667.138 306.378C669.57 308.866 668.354 321.38 663.727 325.434Z" fill="#FFB27D"/>
<path d="M649.999 304.472L648.533 314.499C648.533 314.499 647.887 314.499 646.747 314.414C643.17 314.166 634.479 313.67 624.655 312.593C609.871 311.105 592.322 308.448 585.339 304.061C574.696 297.435 557.231 277.133 545.859 256.831C545.534 256.335 545.291 255.838 545.047 255.342C539.117 244.571 534.974 233.878 534.65 225.346C534.406 220.13 534.974 215.652 536.03 211.761C537.411 206.624 539.686 202.563 542.041 199.495C542.367 198.999 542.691 198.503 543.179 198.085C547.078 193.365 550.895 191.374 550.895 191.374C552.847 190.545 554.959 191.544 557.147 193.946V194.031C558.939 195.937 560.885 198.836 562.754 202.478C562.837 202.563 562.92 202.648 562.92 202.726C563.323 203.477 563.733 204.3 564.219 205.214C564.379 205.377 564.463 205.631 564.539 205.795C565.435 207.701 566.331 209.685 567.221 211.761C577.211 233.963 587.855 267.602 596.712 277.629C600.527 281.937 617.992 290.391 631.88 296.684C641.871 301.162 649.999 304.472 649.999 304.472Z" fill="#FFB27D"/>
<path d="M546.61 214.248C540.449 217.166 533.009 219.151 524.01 219.654C490.271 221.534 482.612 191.368 481.219 171.346C486.082 169.551 490.341 169.721 492.795 169.851C495.187 169.988 497.685 170.236 499.744 170.498C503.871 168.298 511.285 157.618 515.571 139.75L517.025 140.436L541.37 152.108C541.37 152.108 538.785 160.19 536.874 167.925C535.384 173.977 534.315 179.82 535.209 181.458C537.128 182.255 538.277 182.751 538.277 182.751C538.277 182.751 538.277 182.764 538.285 182.777C538.531 183.416 543.823 197.171 546.61 214.248Z" fill="#FFB27D"/>
<path d="M555.048 236.829C554.792 237.521 554.517 238.187 554.21 238.879C545.664 257.647 529.846 335.402 529.846 335.402C532.098 349.385 426.843 332.66 426.571 319.931C422.864 306.437 439.725 284.751 449.233 273.875C450.424 272.504 451.494 271.036 452.422 269.495C454.771 265.611 456.261 261.231 456.734 256.654C458.601 238.611 457.891 221.703 458.048 211.422L458.049 211.415C459.907 210.012 461.703 208.719 463.377 207.485C465.935 205.579 468.196 203.803 469.862 201.995C471.693 200.03 472.841 198.02 472.973 195.748C473.069 194.031 473.016 192.275 472.841 190.512C472.762 189.677 472.657 188.848 472.534 188.019C471.22 179.284 467.644 171.366 467.644 171.366C476.697 167.632 492.795 169.851 492.795 169.851C492.795 169.851 492.778 170.765 492.769 172.26C492.716 178.253 492.769 193.659 494.653 196.57C497.01 200.2 540.134 216.102 542.413 211.174C544.655 206.33 538.513 183.638 538.285 182.777C538.276 182.764 538.276 182.751 538.276 182.751C552.719 188.534 557.877 193.391 557.877 193.391C549.18 199.142 561.781 218.622 555.048 236.829Z" fill="#F99746"/>
<path d="M541.37 152.115C541.37 152.115 538.782 160.19 536.875 167.925C522.645 163.878 518.324 148.622 517.024 140.442L541.37 152.115Z" fill="#ED985F"/>
<path d="M544.367 160.666C544.367 160.666 510.323 152.624 515.555 131.081C520.788 109.532 519.919 93.9825 541.876 98.1996C563.836 102.423 566.043 111.706 566.011 119.331C565.979 126.956 553.359 162.2 544.367 160.666Z" fill="#FFB27D"/>
<path d="M567.925 107.097C564.264 99.2898 559.957 99.7076 557.263 101.092C541.268 85.9922 525.578 98.3236 525.578 98.3236C519.539 113.208 506.451 119.292 506.451 119.292C506.451 119.292 511.681 124.749 526.839 124.632C531.469 124.592 536.125 122.425 540.36 119.435C532.19 127.83 522.609 132.942 522.609 132.942C541.585 129.24 554.306 106.83 555.611 104.453C557.218 106.869 560.296 112.026 560.552 116.38C560.904 122.295 558.908 133.777 562.229 134.215C562.229 134.215 573.416 118.809 567.925 107.097Z" fill="#2C3A64"/>
<path d="M557.883 193.385C557.883 193.385 566.082 207.968 567.304 211.722C567.304 211.722 556.674 211.304 552.386 219.647C552.386 219.647 551.355 195.35 557.883 193.385Z" fill="#F99746"/>
<path d="M501.506 309.277C480.746 309.055 463.166 287.062 452.422 269.495C454.771 265.611 456.261 261.23 456.734 256.654C458.601 238.611 457.891 221.703 458.048 211.422L458.049 211.415C459.907 210.012 461.703 208.719 463.377 207.485C465.935 205.579 468.196 203.803 469.862 201.995C486.862 231.306 529.653 309.584 501.506 309.277Z" fill="#ED7D2B"/>
<path d="M461.11 683.946H407.048C407.048 683.946 405.752 675.538 408.576 669.167C411.282 663.05 415.52 660.269 414.505 652.866C417.94 656.47 423.539 660.511 431.355 659.44C432.312 661.026 437.537 669.5 440.735 671.843C444.268 674.435 460.022 673.508 461.11 683.946Z" fill="#233862"/>
<path d="M577.186 683.946H523.126C523.126 683.946 521.105 675.153 524.653 669.167C527.795 663.873 526.591 660.857 524.264 656.47C526.713 657.495 529.882 658.428 533.37 658.219C536.063 658.063 538.911 656.816 541.409 655.34C543.736 658.043 553.698 669.559 556.815 671.843C560.347 674.435 576.098 673.508 577.186 683.946Z" fill="#233862"/>
<path d="M631.228 290.169L628.578 289.503C637.365 271.081 652.994 257.079 665.813 249.8C677.039 243.429 686.325 240.543 689.66 239.61C690.472 239.381 691.33 239.584 691.964 240.152L694.408 242.352C695.618 243.435 695.17 245.518 693.615 245.968C681.736 249.467 644.495 262.347 631.228 290.169Z" fill="#2B478B"/>
<path d="M584.687 301.711C592.962 267.478 611.874 272.237 635.202 278.106C658.53 283.974 677.435 288.733 669.16 322.966C663.227 347.498 639.509 362.63 616.181 356.762C592.853 350.893 578.754 326.25 584.687 301.711Z" fill="#F46C0F"/>
<path d="M597.167 293.1C597.167 287.173 605.499 279.751 611.311 279.751C617.115 279.751 620.655 285.867 620.655 291.788C620.655 297.716 613.493 303.826 607.688 303.826C601.877 303.826 597.167 299.028 597.167 293.1Z" fill="#FF9045"/>
<path d="M579.976 320.799L577.135 331.4C577.135 331.4 573.557 330.741 567.874 329.664C566.165 329.331 565.192 329.083 565.192 329.083C560.642 328.169 555.202 326.929 549.269 325.603H549.192C539.036 323.116 527.664 320.133 518.079 316.817C511.336 314.414 505.488 311.849 501.507 309.277C501.101 309.029 500.777 308.781 500.371 308.448C490.867 301.411 479.575 280.697 470.803 258.489C469.585 255.427 468.447 252.359 467.309 249.376C463.248 238.271 459.999 227.337 458.05 217.891C456.831 212.257 456.019 207.12 455.856 202.896C455.775 201.401 455.693 199.998 455.775 198.666C455.937 174.643 467.635 171.327 467.635 171.327C467.878 171.242 468.122 171.163 468.447 171.078C470.477 170.746 472.589 172.156 474.783 174.891C477.545 178.285 480.469 183.834 483.475 190.545C488.104 201.238 492.979 215.071 497.528 228.832C500.045 236.365 502.482 243.905 504.919 250.864C506.3 255.094 507.681 259.07 508.981 262.712C511.499 269.678 513.773 275.311 515.804 278.869C517.104 281.193 520.84 284.425 525.795 288.067C534.406 294.452 546.996 302.155 557.96 308.448C562.511 311.105 566.818 313.507 570.389 315.491C576.156 318.723 579.976 320.799 579.976 320.799Z" fill="#FFB27D"/>
<path d="M483.446 190.584C467.808 186.184 455.745 198.64 455.745 198.64C455.942 174.649 467.649 171.366 467.649 171.366C472.358 169.375 477.816 177.698 483.446 190.584Z" fill="#F99746"/>
<path d="M579.976 320.799C579.976 320.799 585.077 320.91 587.963 319.115C590.85 317.313 599.023 314.865 602.709 315.27C602.709 315.27 604.072 315.844 603.586 317.15C603.106 318.462 597.096 319.519 597.096 321.974C597.096 321.974 604.629 321.726 606.875 320.747C609.115 319.767 617.768 322.02 619.451 323.038C621.141 324.05 608.475 331.831 602.869 334.971C597.256 338.111 577.135 331.4 577.135 331.4L579.976 320.799Z" fill="#FFB27D"/>
<path d="M576.162 1055.4C574.319 1055.4 572.744 1053.87 572.424 1051.78L554.133 929.1L527.821 752.654L520.463 703.315L539.205 702.682L542.456 731.327L565.288 932.605L578.824 1051.91C579.029 1053.76 577.781 1055.4 576.162 1055.4Z" fill="#FCECDB"/>
<path d="M384.383 703.315L376.042 759.234V759.241L353.009 913.7L332.414 1051.78C332.104 1053.87 330.529 1055.4 328.687 1055.4C327.064 1055.4 325.809 1053.76 326.023 1051.91L343.782 895.376L362.774 727.945L365.642 702.682L384.383 703.315Z" fill="#FCECDB"/>
<path d="M376.042 759.234C377.137 735.204 362.774 727.945 362.774 727.945L365.642 702.682L384.383 703.315L376.042 759.234Z" fill="#EFCBAB"/>
<path d="M542.456 731.327C530.314 737.665 527.821 752.654 527.821 752.654L520.463 703.315L539.205 702.682L542.456 731.327Z" fill="#EFCBAB"/>
<path d="M595.119 703.315H309.723C305.366 703.315 301.802 699.679 301.802 695.24V692.028C301.802 687.583 305.366 683.946 309.723 683.946H595.119C599.477 683.946 603.042 687.583 603.042 692.028V695.24C603.042 699.679 599.477 703.315 595.119 703.315Z" fill="#FCECDB"/>
<path d="M1523.78 1055.02H1454.52C1450.81 1051.81 1457.09 1044.52 1463.65 1044.03C1466.5 1043.81 1470.1 1044.42 1474.22 1045.31C1475.18 1032.39 1480.62 974.339 1501.13 976.676C1524.19 979.287 1501.13 1002.24 1494.61 1015.82C1489.78 1025.89 1484.69 1040.32 1482.36 1047.14C1484.23 1047.55 1486.17 1047.96 1488.15 1048.33C1491.2 1038.75 1502.58 1006.55 1517.05 1008.42C1534.03 1010.62 1527.2 1023.53 1515.16 1031.2C1506.33 1036.84 1495.49 1044.85 1490.34 1048.72C1494.7 1049.44 1499.26 1049.93 1503.88 1049.82C1515.75 1049.54 1521.54 1053.11 1523.78 1055.02Z" fill="#82B378"/>
<path d="M189.686 1055.02H258.949C262.661 1051.81 256.381 1044.52 249.819 1044.03C246.97 1043.81 243.365 1044.42 239.247 1045.31C238.295 1032.39 232.852 974.339 212.338 976.676C189.272 979.287 212.338 1002.24 218.858 1015.82C223.688 1025.89 228.784 1040.32 231.112 1047.14C229.24 1047.55 227.3 1047.96 225.32 1048.33C222.263 1038.75 210.888 1006.55 196.422 1008.42C179.438 1010.62 186.265 1023.53 198.303 1031.2C207.135 1036.84 217.98 1044.85 223.133 1048.72C218.767 1049.44 214.211 1049.93 209.587 1049.82C197.723 1049.54 191.932 1053.11 189.686 1055.02Z" fill="#82B378"/>
<path d="M828.584 947.555C831.554 962.752 835.196 975.906 839.426 987.278C872.22 1075.42 940.584 1056.42 1007.32 1056.42C1082.66 1056.42 1082.51 1004.94 1082.51 935.36C1082.51 865.785 1040.78 810.492 965.442 810.492C890.101 810.492 815.266 879.317 828.584 947.555Z" fill="#FFB93E"/>
<path d="M1128.36 957.98C1128.83 887.49 1078.58 830.853 1011.48 812.059C943.023 792.873 886.159 839.796 886.267 908.164C886.376 976.839 944.411 1044.86 1013.86 1054C1081.03 1062.85 1127.91 1026.54 1128.36 957.98Z" fill="#FFA412"/>
<path d="M1122.33 956.276C1122.78 889.298 1075.03 835.488 1011.28 817.627C946.223 799.401 892.2 843.981 892.296 908.941C892.399 974.202 947.547 1038.84 1013.53 1047.52C1077.35 1055.92 1121.9 1021.43 1122.33 956.276Z" fill="#FFDA9F"/>
<path d="M1006.23 917.049L1024.89 845.424C1026.27 840.097 1022.2 833.81 1016.54 832.557C1009.63 831.023 1000.12 829.384 990.011 829.032C978.312 828.627 968.482 829.632 961.691 830.703C956.424 831.532 954.319 837.557 957.423 842.897L1000.48 916.925C1002.01 919.575 1005.55 919.654 1006.23 917.049Z" fill="#FFB93E"/>
<path d="M1022.39 939.036L1092.35 983.635C1097.55 986.951 1103.5 984.901 1104.52 979.418C1105.77 972.733 1107.04 963.365 1107.04 952.927C1107.04 940.844 1105.74 930.216 1104.48 922.742C1103.5 916.945 1097.6 912.636 1092.53 914.007L1022.31 933.062C1019.8 933.748 1019.84 937.417 1022.39 939.036Z" fill="#FFB93E"/>
<path d="M1018.07 925.777L1087.26 907.003C1092.4 905.606 1094.03 899.26 1090.57 893.992C1086.36 887.569 1080.2 878.952 1072.59 870.459C1063.78 860.634 1055.36 853.016 1049.24 847.924C1044.51 843.987 1038.27 845.123 1036.62 850.228L1013.68 920.979C1012.86 923.512 1015.56 926.463 1018.07 925.777Z" fill="#FFB93E"/>
<path d="M1011.41 945.668L1032.81 1024.47C1034.4 1030.34 1040.64 1034.18 1045.58 1032.35C1051.62 1030.1 1059.69 1026.57 1067.58 1021.48C1076.71 1015.58 1083.71 1009.34 1088.35 1004.66C1091.96 1001.03 1090.57 994.119 1085.54 990.659L1015.87 942.691C1013.37 940.974 1010.64 942.802 1011.41 945.668Z" fill="#FFB93E"/>
<path d="M994.427 919.203L947.688 848.596C944.207 843.341 937.474 841.905 933.883 845.672C929.506 850.261 923.848 856.939 918.907 865.106C913.192 874.558 909.429 883.528 907.119 890.023C905.327 895.056 909.013 901.441 914.575 902.955L991.675 923.91C994.434 924.661 996.13 921.769 994.427 919.203Z" fill="#FFB93E"/>
<path d="M991.656 930.366L915.503 916.86C909.839 915.854 905.736 920.496 907.112 926.378C908.789 933.552 911.541 943.383 915.778 953.73C920.687 965.702 926.082 975.658 930.165 982.506C933.333 987.819 939.976 989.504 943.624 985.92L994.139 936.255C995.951 934.472 994.421 930.856 991.656 930.366Z" fill="#FFB93E"/>
<path d="M998.498 942.411L957.429 999.707C954.376 1003.97 956.533 1010.9 961.871 1013.92C968.379 1017.59 977.474 1022.23 987.573 1025.92C999.266 1030.21 1009.51 1032.61 1016.7 1033.93C1022.27 1034.96 1026.27 1030.32 1024.79 1024.54L1004.27 944.454C1003.53 941.582 999.989 940.335 998.498 942.411Z" fill="#FFB93E"/>
<path d="M830.703 583.78C831.01 582.507 803.471 596.484 802.069 598.064C789.154 612.68 792.834 631.748 800.226 631.938C804.968 632.049 804.053 640.091 804.053 640.091L856.866 617.302C856.866 617.302 850.504 579.478 830.703 583.78Z" fill="#2C3A64"/>
<path d="M837.205 586.731C837.205 586.731 839.093 565.75 816.104 565.75C816.104 565.75 823.067 567.676 826.671 571.527C826.671 571.527 812.008 562.754 796.053 576.24C780.098 589.734 790.011 623.562 785.16 629.992C780.309 636.416 761.416 637.702 763.727 658.467C766.037 679.24 823.688 705.254 819.989 722.442C819.989 722.442 842.581 688.562 826.427 673.103C826.427 673.103 834.299 680.669 835.106 689.665C835.106 689.665 837.243 672.105 826.287 666.484C816.591 661.516 808.655 643.342 809.493 640.091C810.331 636.84 837.205 586.731 837.205 586.731Z" fill="#2C3A64"/>
<path d="M816.328 685.461C812.789 668.051 790.651 662.652 780.181 676.87C778.299 679.429 776.975 682.451 776.539 686.016C774.152 705.783 805.128 786.28 809.57 793.565C817.647 806.836 865.205 852.324 865.205 852.324L873.973 846.905C873.973 846.905 840.232 788.649 835.01 783.198C828.975 776.892 823.061 718.519 816.328 685.461Z" fill="#ED985F"/>
<path d="M861.871 846.925C861.871 846.925 874.664 838.36 879.509 838.915C884.348 839.464 898.363 843.576 898.536 845.678C898.709 847.78 882.92 849.092 881.858 850.241C880.802 851.39 870.082 858.689 866.191 856.404C862.306 854.112 861.871 846.925 861.871 846.925Z" fill="#ED985F"/>
<path d="M772.635 1040.49L761.205 1038.78C761.205 1038.78 722.779 1007.63 717.058 949.506C716.475 943.592 716.354 937.586 716.783 931.535C716.834 930.836 716.757 930.144 716.386 929.557C716.386 929.55 716.379 929.544 716.373 929.537C715.144 927.611 712.079 922.794 707.938 915.946C703.848 909.196 696.859 896.434 689.167 882.111C675.311 856.319 659.183 825.474 653.647 815.649C636.015 784.341 644.514 763.288 644.514 763.288C644.514 763.288 693.698 758.327 707.176 746.302L712.027 753.933C712.027 753.933 722.69 802.051 722.184 802.273C722.709 803.912 723.24 805.577 723.784 807.274C732.194 833.751 741.864 866.842 747.138 893.796C750.107 908.961 751.675 922.174 750.831 931.176C750.543 934.263 750.895 939.009 751.701 944.865C756.463 979.405 772.635 1040.49 772.635 1040.49Z" fill="#F99746"/>
<path d="M796.61 1055.24H748.93C748.93 1055.24 747.784 1047.83 750.274 1042.2C752.661 1036.81 756.066 1036.64 750.709 1028.18C753.736 1031.36 763.477 1032.67 770.37 1031.73C771.215 1033.12 775.816 1042.5 778.639 1044.57C781.756 1046.85 795.65 1046.04 796.61 1055.24Z" fill="#233862"/>
<path d="M723.784 807.274C719.618 830.703 709.781 869.701 689.167 882.111C675.311 856.319 659.183 825.474 653.647 815.649C636.015 784.341 644.514 763.288 644.514 763.288C644.514 763.288 693.698 758.327 707.176 746.302L712.027 753.933C712.027 753.933 722.69 802.051 722.184 802.273C722.709 803.912 723.24 805.576 723.784 807.274Z" fill="#ED7D2B"/>
<path d="M811.227 674.657C811.227 674.657 817.973 681.812 821.051 690.376C821.051 690.376 810.293 721.874 785.16 725.83C785.16 725.83 805.045 674.644 811.227 674.657Z" fill="#2A4E96"/>
<path d="M690.344 766.905L690.504 757.811C672.738 760.096 629.237 736.151 629.237 736.151C629.237 736.151 610.651 748.763 608.104 784.772C606.863 802.352 599.01 876.693 598.139 898.888C597.819 906.937 597.717 912.675 597.679 914.973C597.685 914.98 597.685 914.986 597.685 914.993C597.672 915.691 597.352 916.312 596.93 916.866C593.25 921.632 590.063 926.685 587.298 931.92C560.187 983.374 574.363 1053.28 574.363 1053.28L580.661 1051.65C580.661 1051.65 603.586 979.176 618.568 947.829C621.115 942.509 623.426 938.376 625.359 935.98C630.991 929.002 636.93 917.147 642.786 902.883C653.851 875.916 664.597 840.332 672.264 812.777C672.802 812.875 690.344 766.905 690.344 766.905Z" fill="#F99746"/>
<path d="M794.319 706.194C765.269 699.392 783.829 657.762 785.512 658.494C789.538 657.658 798.376 650.451 806.28 636.377L807.349 637.317L825.192 653.271C825.192 653.271 821.064 659.479 817.595 665.557C814.888 670.316 812.584 675.003 812.949 676.609C814.383 677.764 802.063 708.009 794.319 706.194Z" fill="#FFB27D"/>
<path d="M825.192 653.278C825.192 653.278 821.064 659.473 817.595 665.557C806.504 658.585 806.491 644.582 807.349 637.323L825.192 653.278Z" fill="#ED985F"/>
<path d="M825.685 661.268C825.685 661.268 798.754 645.979 808.341 629.02C817.935 612.06 820.917 598.664 838.517 607.705C856.117 616.753 855.771 625.168 853.915 631.624C852.066 638.08 832.936 664.806 825.685 661.268Z" fill="#FFB27D"/>
<path d="M858.466 621.734C857.237 614.201 853.487 613.483 850.869 613.986C840.924 597.209 824.674 603.756 824.674 603.756C815.996 614.867 803.445 616.76 803.445 616.76C803.445 616.76 806.575 622.694 819.452 626.363C823.381 627.486 827.848 626.807 832.149 625.331C823.221 630.41 813.877 632.355 813.877 632.355C830.844 633.942 846.991 618.118 848.661 616.427C849.448 618.875 850.818 624.013 849.999 627.766C848.879 632.865 844.444 642.102 847.151 643.296C847.151 643.296 860.316 633.028 858.466 621.734Z" fill="#2C3A64"/>
<path d="M612.283 1055.24H564.603C564.603 1055.24 563.458 1047.83 565.947 1042.2C568.335 1036.81 572.072 1034.36 571.176 1027.83C574.21 1031.01 579.144 1034.57 586.037 1033.63C586.882 1035.02 591.49 1042.5 594.312 1044.57C597.429 1046.85 611.323 1046.04 612.283 1055.24Z" fill="#233862"/>
<path d="M797.736 739.2C791.599 741.387 782.991 742.581 774.178 743.554C761.64 744.951 748.699 745.904 741.915 748.665C739.445 749.671 737.787 750.911 737.275 752.504C734.331 761.519 721.378 775.43 721.378 775.43C638.357 771.572 629.237 736.151 629.237 736.151C685.103 669.898 779.682 650.719 779.682 650.719C779.682 650.719 786.434 647.794 803.451 661.588C814.805 670.792 813.307 674.331 813.307 674.331C813.307 674.331 815.791 732.776 797.736 739.2Z" fill="#2A4E96"/>
<path d="M774.178 743.554C761.64 744.951 748.699 745.904 741.915 748.665C739.144 706.429 758.69 674.657 758.69 674.657C758.69 674.657 771.432 727.573 774.178 743.554Z" fill="#1E3D70"/>
<path d="M787.087 666.484C787.087 666.484 755.663 669.656 753.141 690.481C750.626 711.305 783.266 796.13 787.944 803.814C796.456 817.797 846.575 865.726 846.575 865.726L855.81 860.02C855.81 860.02 820.264 798.631 814.754 792.886C806.114 783.871 797.723 673.704 787.087 666.484Z" fill="#FFB27D"/>
<path d="M754.05 703.008C754.133 703.485 783.048 712.644 801.659 703.008C801.659 703.008 805.64 659.212 783.426 661.588C761.205 663.964 748.053 671.106 747.49 681.955C746.933 692.805 754.05 703.008 754.05 703.008Z" fill="#2A4E96"/>
<path d="M843.72 859.642C843.72 859.642 854.991 849.079 859.855 848.831C864.725 848.577 879.208 850.333 879.707 852.383C880.207 854.426 864.834 858.316 863.97 859.629C863.106 860.934 853.679 869.904 849.48 868.278C845.282 866.659 843.72 859.642 843.72 859.642Z" fill="#FFB27D"/>
<path d="M1732.81 1059.21H1.96608C0.885118 1059.21 0 1058.31 0 1057.21V1056.52C0 1055.42 0.885118 1054.52 1.96608 1054.52H1732.81C1733.89 1054.52 1734.77 1055.42 1734.77 1056.52V1057.21C1734.77 1058.31 1733.89 1059.21 1732.81 1059.21Z" fill="#2E3552"/>
</svg>
